<svg width="277" height="235" viewBox="0 0 277 235" fill="none" xmlns="http://www.w3.org/2000/svg">
<rect x="78.5" y="57.5" width="120" height="120" rx="60" fill="#E4F59F"/>
<path d="M133.254 87.5056L127.952 89.4887C127.53 89.6434 127.249 90.0513 127.249 90.5013C127.249 90.9514 127.53 91.3593 127.952 91.514L133.254 93.4971L135.237 98.7994C135.392 99.2213 135.8 99.5026 136.25 99.5026C136.7 99.5026 137.108 99.2213 137.263 98.7994L139.246 93.4971L144.548 91.514C144.97 91.3593 145.251 90.9514 145.251 90.5013C145.251 90.0513 144.97 89.6434 144.548 89.4887L139.246 87.5056L137.263 82.2032C137.108 81.7813 136.7 81.5 136.25 81.5C135.8 81.5 135.392 81.7813 135.237 82.2032L133.254 87.5056ZM165.139 88.251L170.005 93.1173L154.562 108.546L149.696 103.68L165.139 88.251ZM111.496 141.893L144.928 108.462L149.794 113.328L116.363 146.76L111.496 141.893ZM160.357 83.4831L106.728 137.111C104.098 139.741 104.098 144.017 106.728 146.661L111.595 151.527C114.225 154.158 118.5 154.158 121.145 151.527L174.773 97.8852C177.403 95.2551 177.403 90.9795 174.773 88.3354L169.906 83.4831C167.276 80.853 163.001 80.853 160.357 83.4831ZM101.299 97.9837C100.667 98.2228 100.245 98.8275 100.245 99.5026C100.245 100.178 100.667 100.783 101.299 101.022L109.246 104.003L112.228 111.95C112.467 112.583 113.072 113.005 113.747 113.005C114.422 113.005 115.026 112.583 115.266 111.95L118.247 104.003L126.194 101.022C126.827 100.783 127.249 100.178 127.249 99.5026C127.249 98.8275 126.827 98.2228 126.194 97.9837L118.247 95.002L115.266 87.0555C115.026 86.4226 114.422 86.0007 113.747 86.0007C113.072 86.0007 112.467 86.4226 112.228 87.0555L109.246 95.002L101.299 97.9837ZM150.807 133.989C150.174 134.228 149.752 134.833 149.752 135.508C149.752 136.183 150.174 136.788 150.807 137.027L158.753 140.009L161.735 147.955C161.974 148.588 162.579 149.01 163.254 149.01C163.929 149.01 164.534 148.588 164.773 147.955L167.755 140.009L175.701 137.027C176.334 136.788 176.756 136.183 176.756 135.508C176.756 134.833 176.334 134.228 175.701 133.989L167.755 131.007L164.773 123.061C164.534 122.428 163.929 122.006 163.254 122.006C162.579 122.006 161.974 122.428 161.735 123.061L158.753 131.007L150.807 133.989Z" fill="#487500"/>
<g clip-path="url(#clip0_671_1728)">
<path d="M70.9422 53.5102C70.7289 53.0453 70.2641 52.75 69.75 52.75C69.2359 52.75 68.7711 53.0453 68.5578 53.5102L65.3039 60.5539L58.2602 63.8078C57.7953 64.0211 57.5 64.4859 57.5 65C57.5 65.5141 57.7953 65.9789 58.2602 66.1922L65.3039 69.4461L68.5578 76.4898C68.7711 76.9547 69.2359 77.25 69.75 77.25C70.2641 77.25 70.7289 76.9547 70.9422 76.4898L74.1961 69.4461L81.2398 66.1922C81.7047 65.9789 82 65.5141 82 65C82 64.4859 81.7047 64.0211 81.2398 63.8078L74.1961 60.5539L70.9422 53.5102Z" fill="#487500"/>
</g>
<g clip-path="url(#clip1_671_1728)">
<path d="M51.6326 89.3321C51.5194 89.0854 51.2728 88.9287 51 88.9287C50.7272 88.9287 50.4806 89.0854 50.3674 89.3321L48.6408 93.0696L44.9033 94.7961C44.6567 94.9093 44.5 95.1559 44.5 95.4287C44.5 95.7015 44.6567 95.9481 44.9033 96.0613L48.6408 97.7879L50.3674 101.525C50.4806 101.772 50.7272 101.929 51 101.929C51.2728 101.929 51.5194 101.772 51.6326 101.525L53.3592 97.7879L57.0967 96.0613C57.3433 95.9481 57.5 95.7015 57.5 95.4287C57.5 95.1559 57.3433 94.9093 57.0967 94.7961L53.3592 93.0696L51.6326 89.3321Z" fill="#487500"/>
</g>
<g clip-path="url(#clip2_671_1728)">
<path d="M215.022 141.152C214.839 140.753 214.441 140.5 214 140.5C213.559 140.5 213.161 140.753 212.978 141.152L210.189 147.189L204.152 149.978C203.753 150.161 203.5 150.559 203.5 151C203.5 151.441 203.753 151.839 204.152 152.022L210.189 154.811L212.978 160.848C213.161 161.247 213.559 161.5 214 161.5C214.441 161.5 214.839 161.247 215.022 160.848L217.811 154.811L223.848 152.022C224.247 151.839 224.5 151.441 224.5 151C224.5 150.559 224.247 150.161 223.848 149.978L217.811 147.189L215.022 141.152Z" fill="#487500"/>
</g>
<defs>
<clipPath id="clip0_671_1728">
<rect width="24.5" height="28" fill="white" transform="translate(57.5 51)"/>
</clipPath>
<clipPath id="clip1_671_1728">
<rect width="13" height="14.8571" fill="white" transform="translate(44.5 88)"/>
</clipPath>
<clipPath id="clip2_671_1728">
<rect width="21" height="24" fill="white" transform="translate(203.5 139)"/>
</clipPath>
</defs>
</svg>
