<svg width="277" height="235" viewBox="0 0 277 235" fill="none" xmlns="http://www.w3.org/2000/svg">
<rect x="78.5" y="57.5" width="120" height="120" rx="60" fill="#E4F59F"/>
<path d="M167.75 117.5C167.75 109.742 164.668 102.303 159.183 96.8171C153.697 91.3317 146.258 88.25 138.5 88.25C130.742 88.25 123.303 91.3317 117.817 96.8171C112.332 102.303 109.25 109.742 109.25 117.5C109.25 125.258 112.332 132.697 117.817 138.183C123.303 143.668 130.742 146.75 138.5 146.75C146.258 146.75 153.697 143.668 159.183 138.183C164.668 132.697 167.75 125.258 167.75 117.5ZM102.5 117.5C102.5 107.952 106.293 98.7955 113.044 92.0442C119.795 85.2928 128.952 81.5 138.5 81.5C148.048 81.5 157.205 85.2928 163.956 92.0442C170.707 98.7955 174.5 107.952 174.5 117.5C174.5 127.048 170.707 136.205 163.956 142.956C157.205 149.707 148.048 153.5 138.5 153.5C128.952 153.5 119.795 149.707 113.044 142.956C106.293 136.205 102.5 127.048 102.5 117.5ZM126.378 104.745C127.489 101.609 130.47 99.5 133.803 99.5H142.002C146.909 99.5 150.875 103.48 150.875 108.373C150.875 111.552 149.173 114.491 146.417 116.08L141.875 118.681C141.847 120.509 140.342 122 138.5 122C136.63 122 135.125 120.495 135.125 118.625V116.727C135.125 115.517 135.772 114.406 136.827 113.802L143.056 110.23C143.717 109.85 144.125 109.147 144.125 108.387C144.125 107.206 143.169 106.264 142.002 106.264H133.803C133.325 106.264 132.903 106.559 132.748 107.009L132.692 107.178C132.073 108.936 130.133 109.85 128.389 109.231C126.645 108.612 125.717 106.672 126.336 104.928L126.392 104.759L126.378 104.745ZM134 131C134 129.807 134.474 128.662 135.318 127.818C136.162 126.974 137.307 126.5 138.5 126.5C139.693 126.5 140.838 126.974 141.682 127.818C142.526 128.662 143 129.807 143 131C143 132.193 142.526 133.338 141.682 134.182C140.838 135.026 139.693 135.5 138.5 135.5C137.307 135.5 136.162 135.026 135.318 134.182C134.474 133.338 134 132.193 134 131Z" fill="#487500"/>
<g clip-path="url(#clip0_671_1695)">
<path d="M70.9422 53.5102C70.7289 53.0453 70.2641 52.75 69.75 52.75C69.2359 52.75 68.7711 53.0453 68.5578 53.5102L65.3039 60.5539L58.2602 63.8078C57.7953 64.0211 57.5 64.4859 57.5 65C57.5 65.5141 57.7953 65.9789 58.2602 66.1922L65.3039 69.4461L68.5578 76.4898C68.7711 76.9547 69.2359 77.25 69.75 77.25C70.2641 77.25 70.7289 76.9547 70.9422 76.4898L74.1961 69.4461L81.2398 66.1922C81.7047 65.9789 82 65.5141 82 65C82 64.4859 81.7047 64.0211 81.2398 63.8078L74.1961 60.5539L70.9422 53.5102Z" fill="#487500"/>
</g>
<g clip-path="url(#clip1_671_1695)">
<path d="M51.6326 89.3321C51.5194 89.0854 51.2728 88.9287 51 88.9287C50.7272 88.9287 50.4806 89.0854 50.3674 89.3321L48.6408 93.0696L44.9033 94.7961C44.6567 94.9093 44.5 95.1559 44.5 95.4287C44.5 95.7015 44.6567 95.9481 44.9033 96.0613L48.6408 97.7879L50.3674 101.525C50.4806 101.772 50.7272 101.929 51 101.929C51.2728 101.929 51.5194 101.772 51.6326 101.525L53.3592 97.7879L57.0967 96.0613C57.3433 95.9481 57.5 95.7015 57.5 95.4287C57.5 95.1559 57.3433 94.9093 57.0967 94.7961L53.3592 93.0696L51.6326 89.3321Z" fill="#487500"/>
</g>
<g clip-path="url(#clip2_671_1695)">
<path d="M215.022 141.152C214.839 140.753 214.441 140.5 214 140.5C213.559 140.5 213.161 140.753 212.978 141.152L210.189 147.189L204.152 149.978C203.753 150.161 203.5 150.559 203.5 151C203.5 151.441 203.753 151.839 204.152 152.022L210.189 154.811L212.978 160.848C213.161 161.247 213.559 161.5 214 161.5C214.441 161.5 214.839 161.247 215.022 160.848L217.811 154.811L223.848 152.022C224.247 151.839 224.5 151.441 224.5 151C224.5 150.559 224.247 150.161 223.848 149.978L217.811 147.189L215.022 141.152Z" fill="#487500"/>
</g>
<defs>
<clipPath id="clip0_671_1695">
<rect width="24.5" height="28" fill="white" transform="translate(57.5 51)"/>
</clipPath>
<clipPath id="clip1_671_1695">
<rect width="13" height="14.8571" fill="white" transform="translate(44.5 88)"/>
</clipPath>
<clipPath id="clip2_671_1695">
<rect width="21" height="24" fill="white" transform="translate(203.5 139)"/>
</clipPath>
</defs>
</svg>
