<svg width="277" height="235" viewBox="0 0 277 235" fill="none" xmlns="http://www.w3.org/2000/svg">
<rect x="78.5" y="57.5" width="120" height="120" rx="60" fill="#FFBCBC"/>
<g clip-path="url(#clip0_671_1761)">
<path d="M167.75 117.5C167.75 133.658 154.658 146.75 138.5 146.75C129.303 146.75 121.091 142.503 115.719 135.852C115.17 138.256 113.834 140.352 112.006 141.87C118.587 149.028 128.023 153.5 138.5 153.5C158.384 153.5 174.5 137.384 174.5 117.5C174.5 97.6156 158.384 81.5 138.5 81.5C118.616 81.5 102.5 97.6156 102.5 117.5C102.5 117.655 102.5 117.809 102.5 117.964C104.792 116.966 107.619 117.57 109.25 119.764L109.348 119.891C109.278 119.103 109.25 118.302 109.25 117.5C109.25 101.342 122.342 88.25 138.5 88.25C154.658 88.25 167.75 101.342 167.75 117.5ZM103.02 123.603C101.009 126.373 98 130.958 98 133.391C98 137.047 101.023 140 104.75 140C106.438 140 107.984 139.395 109.18 138.383C110.6 137.173 111.5 135.388 111.5 133.391C111.5 130.578 107.506 124.897 105.65 122.464C105.2 121.845 104.3 121.845 103.85 122.464C103.611 122.787 103.316 123.167 103.02 123.603ZM148.681 139.086C150.045 137.82 150.116 135.683 148.85 134.319C146.839 132.167 143.366 129.875 138.5 129.875C133.634 129.875 130.161 132.167 128.164 134.319C126.898 135.683 126.969 137.82 128.333 139.086C129.697 140.352 131.834 140.281 133.1 138.917C134.141 137.806 135.913 136.611 138.514 136.611C141.116 136.611 142.888 137.806 143.928 138.917C145.194 140.281 147.331 140.352 148.695 139.086H148.681ZM149.694 124.25C150.887 124.25 152.032 123.776 152.876 122.932C153.72 122.088 154.194 120.943 154.194 119.75C154.194 118.557 153.72 117.412 152.876 116.568C152.032 115.724 150.887 115.25 149.694 115.25C148.5 115.25 147.356 115.724 146.512 116.568C145.668 117.412 145.194 118.557 145.194 119.75C145.194 120.943 145.668 122.088 146.512 122.932C147.356 123.776 148.5 124.25 149.694 124.25ZM122.694 119.75C122.694 120.943 123.168 122.088 124.012 122.932C124.856 123.776 126 124.25 127.194 124.25C128.387 124.25 129.532 123.776 130.376 122.932C131.22 122.088 131.694 120.943 131.694 119.75C131.694 118.557 131.22 117.412 130.376 116.568C129.532 115.724 128.387 115.25 127.194 115.25C126 115.25 124.856 115.724 124.012 116.568C123.168 117.412 122.694 118.557 122.694 119.75ZM129.964 105.589C130.836 104.717 130.836 103.283 129.964 102.411C129.092 101.539 127.658 101.539 126.786 102.411L125.745 103.452C123.087 106.109 119.67 107.867 115.972 108.472L115.62 108.528C114.397 108.739 113.567 109.892 113.764 111.116C113.961 112.339 115.128 113.169 116.352 112.972L116.703 112.916C121.33 112.142 125.605 109.948 128.909 106.63L129.95 105.589H129.964ZM147.036 102.411C146.164 103.283 146.164 104.717 147.036 105.589L148.077 106.63C151.395 109.948 155.656 112.142 160.283 112.916L160.634 112.972C161.858 113.183 163.025 112.353 163.222 111.116C163.419 109.878 162.603 108.725 161.366 108.528L161.014 108.472C157.316 107.853 153.898 106.095 151.241 103.452L150.2 102.411C149.328 101.539 147.894 101.539 147.022 102.411H147.036Z" fill="#750000"/>
</g>
<defs>
<clipPath id="clip0_671_1761">
<rect width="81" height="72" fill="white" transform="translate(98 81.5)"/>
</clipPath>
</defs>
</svg>
