<svg width="277" height="235" viewBox="0 0 277 235" fill="none" xmlns="http://www.w3.org/2000/svg">
<rect x="78.5" y="57.5" width="120" height="120" rx="60" fill="#E4F59F"/>
<path d="M138.5 81.5C145.953 81.5 151.999 87.5463 151.999 94.9987V95.5049C151.999 97.7125 150.213 99.4982 148.005 99.4982H128.995C126.787 99.4982 125.001 97.7125 125.001 95.5049V94.9987C125.001 87.5463 131.048 81.5 138.5 81.5ZM107.988 95.983C109.309 94.6612 111.447 94.6612 112.754 95.983L122.934 106.163C125.184 104.799 127.814 103.998 130.626 103.998H146.374C149.187 103.998 151.816 104.799 154.052 106.177L164.232 95.983C165.554 94.6612 167.691 94.6612 168.999 95.983C170.306 97.3047 170.32 99.442 168.999 100.75L158.818 110.93C160.196 113.18 160.998 115.809 160.998 118.621H171.122C172.992 118.621 174.497 120.126 174.497 121.996C174.497 123.866 172.992 125.371 171.122 125.371H160.998V126.496C160.998 130.32 160.042 133.92 158.354 137.084L169.013 147.728C170.335 149.05 170.335 151.187 169.013 152.495C167.691 153.802 165.554 153.816 164.246 152.495L154.277 142.525C150.213 146.533 144.645 148.993 138.5 148.993C132.355 148.993 126.787 146.533 122.724 142.539L112.768 152.509C111.447 153.83 109.309 153.83 108.002 152.509C106.694 151.187 106.68 149.05 108.002 147.742L118.66 137.084C116.959 133.92 116.002 130.32 116.002 126.496V125.371H105.878C104.008 125.371 102.504 123.866 102.504 121.996C102.504 120.126 104.008 118.621 105.878 118.621H116.002C116.002 115.809 116.804 113.18 118.182 110.944L107.988 100.764C106.666 99.442 106.666 97.3047 107.988 95.997V95.983ZM122.752 118.621V126.496C122.752 134.032 128.053 140.332 135.125 141.878V120.871C135.125 119.001 136.63 117.496 138.5 117.496C140.37 117.496 141.875 119.001 141.875 120.871V141.878C148.948 140.332 154.249 134.032 154.249 126.496V118.621C154.249 114.276 150.719 110.747 146.374 110.747H130.626C126.281 110.747 122.752 114.276 122.752 118.621Z" fill="#487500"/>
<g clip-path="url(#clip0_671_1284)">
<path d="M70.9422 53.5102C70.7289 53.0453 70.2641 52.75 69.75 52.75C69.2359 52.75 68.7711 53.0453 68.5578 53.5102L65.3039 60.5539L58.2602 63.8078C57.7953 64.0211 57.5 64.4859 57.5 65C57.5 65.5141 57.7953 65.9789 58.2602 66.1922L65.3039 69.4461L68.5578 76.4898C68.7711 76.9547 69.2359 77.25 69.75 77.25C70.2641 77.25 70.7289 76.9547 70.9422 76.4898L74.1961 69.4461L81.2398 66.1922C81.7047 65.9789 82 65.5141 82 65C82 64.4859 81.7047 64.0211 81.2398 63.8078L74.1961 60.5539L70.9422 53.5102Z" fill="#487500"/>
</g>
<g clip-path="url(#clip1_671_1284)">
<path d="M51.6326 89.3321C51.5194 89.0854 51.2728 88.9287 51 88.9287C50.7272 88.9287 50.4806 89.0854 50.3674 89.3321L48.6408 93.0696L44.9033 94.7961C44.6567 94.9093 44.5 95.1559 44.5 95.4287C44.5 95.7015 44.6567 95.9481 44.9033 96.0613L48.6408 97.7879L50.3674 101.525C50.4806 101.772 50.7272 101.929 51 101.929C51.2728 101.929 51.5194 101.772 51.6326 101.525L53.3592 97.7879L57.0967 96.0613C57.3433 95.9481 57.5 95.7015 57.5 95.4287C57.5 95.1559 57.3433 94.9093 57.0967 94.7961L53.3592 93.0696L51.6326 89.3321Z" fill="#487500"/>
</g>
<g clip-path="url(#clip2_671_1284)">
<path d="M215.022 141.152C214.839 140.753 214.441 140.5 214 140.5C213.559 140.5 213.161 140.753 212.978 141.152L210.189 147.189L204.152 149.978C203.753 150.161 203.5 150.559 203.5 151C203.5 151.441 203.753 151.839 204.152 152.022L210.189 154.811L212.978 160.848C213.161 161.247 213.559 161.5 214 161.5C214.441 161.5 214.839 161.247 215.022 160.848L217.811 154.811L223.848 152.022C224.247 151.839 224.5 151.441 224.5 151C224.5 150.559 224.247 150.161 223.848 149.978L217.811 147.189L215.022 141.152Z" fill="#487500"/>
</g>
<defs>
<clipPath id="clip0_671_1284">
<rect width="24.5" height="28" fill="white" transform="translate(57.5 51)"/>
</clipPath>
<clipPath id="clip1_671_1284">
<rect width="13" height="14.8571" fill="white" transform="translate(44.5 88)"/>
</clipPath>
<clipPath id="clip2_671_1284">
<rect width="21" height="24" fill="white" transform="translate(203.5 139)"/>
</clipPath>
</defs>
</svg>
